<svg xmlns="http://www.w3.org/2000/svg" version="1.1"
  xmlns:xlink="http://www.w3.org/1999/xlink"
  xmlns:svgjs="http://svgjs.dev/svgjs" width="500" height="45" viewBox="0 0 1000 90">
  <g transform="matrix(1,0,0,1,-0.606058664628506,-0.48242602638701726)">
    <svg viewBox="0 0 396 36" data-background-color="#fffbf4" preserveAspectRatio="xMidYMid meet" height="90" width="1000"
      xmlns="http://www.w3.org/2000/svg"
      xmlns:xlink="http://www.w3.org/1999/xlink">
      <defs></defs>
      <g id="tight-bounds" transform="matrix(1,0,0,1,0.2399992311928827,0.1929704105548069)">
        <svg viewBox="0 0 395.52 35.61405917889037" height="35.61405917889037" width="395.52">
          <g>
            <svg viewBox="0 0 395.52 35.61405917889037" height="35.61405917889037" width="395.52">
              <g>
                <svg viewBox="0 0 451.40377749504006 40.646037735849056" height="35.61405917889037" width="395.52">
                  <g transform="matrix(1,0,0,1,55.88377749504,6.774339622641509)">
                    <svg viewBox="0 0 395.52000000000004 27.097358490566037" height="27.097358490566037" width="395.52000000000004">
                      <g>
                        <svg viewBox="0 0 395.52000000000004 27.097358490566037" height="27.097358490566037" width="395.52000000000004">
                          <g>
                            <svg viewBox="0 0 395.52000000000004 27.097358490566037" height="27.097358490566037" width="395.52000000000004">
                              <g transform="matrix(1,0,0,1,0,0)">
                                <svg width="395.52000000000004" viewBox="4.420000076293945 -36.040000915527344 533.0599975585938 36.53000259399414" height="27.097358490566037" data-palette-color="#3d4950">
                                  <path d="M26.37 0L17.77-14.79 7.45-14.79 7.45 0 4.42 0 4.42-35.55 15.97-35.55Q21.66-35.55 24.85-32.79 28.05-30.03 28.05-25.07L28.05-25.07Q28.05-21.66 26.05-19.04 24.05-16.43 20.68-15.43L20.68-15.43 29.57-0.32 29.57 0 26.37 0ZM7.45-32.98L7.45-17.36 16.65-17.36Q20.43-17.36 22.73-19.51 25.02-21.66 25.02-25.07L25.02-25.07Q25.02-28.83 22.63-30.91 20.24-32.98 15.92-32.98L15.92-32.98 7.45-32.98ZM59.1 0L55.42-9.96 39.28-9.96 35.62 0 32.47 0 45.92-35.55 48.78-35.55 62.23 0 59.1 0ZM47.34-31.88L40.21-12.52 54.47-12.52 47.34-31.88ZM93.92-35.55L93.92 0 90.91 0 70.48-30.42 70.48 0 67.45 0 67.45-35.55 70.48-35.55 90.94-5.1 90.94-35.55 93.92-35.55ZM126.36-35.55L126.36-32.98 114.18-32.98 114.18 0 111.17 0 111.17-32.98 99.02-32.98 99.02-35.55 126.36-35.55ZM151.82-8.74L151.82-8.74Q151.82-11.69 149.75-13.42 147.67-15.14 142.15-16.69 136.64-18.24 134.1-20.07L134.1-20.07Q130.48-22.66 130.48-26.86L130.48-26.86Q130.48-30.93 133.84-33.48 137.2-36.04 142.42-36.04L142.42-36.04Q145.96-36.04 148.76-34.67 151.55-33.3 153.09-30.86 154.63-28.42 154.63-25.42L154.63-25.42 151.6-25.42Q151.6-29.05 149.11-31.26 146.62-33.47 142.42-33.47L142.42-33.47Q138.34-33.47 135.93-31.65 133.51-29.83 133.51-26.9L133.51-26.9Q133.51-24.19 135.68-22.49 137.86-20.78 142.64-19.47 147.43-18.16 149.89-16.76 152.36-15.36 153.6-13.4 154.85-11.45 154.85-8.79L154.85-8.79Q154.85-4.59 151.49-2.05 148.13 0.49 142.64 0.49L142.64 0.49Q138.88 0.49 135.74-0.85 132.61-2.2 130.98-4.61 129.36-7.03 129.36-10.16L129.36-10.16 132.36-10.16Q132.36-6.4 135.17-4.22 137.98-2.05 142.64-2.05L142.64-2.05Q146.79-2.05 149.31-3.88 151.82-5.71 151.82-8.74ZM196.35 0L192.66-9.96 176.52-9.96 172.86 0 169.71 0 183.16-35.55 186.02-35.55 199.47 0 196.35 0ZM184.58-31.88L177.45-12.52 191.71-12.52 184.58-31.88ZM231.16-35.55L231.16 0 228.16 0 207.72-30.42 207.72 0 204.69 0 204.69-35.55 207.72-35.55 228.18-5.1 228.18-35.55 231.16-35.55ZM249.91 0L240.19 0 240.19-35.55 250.13-35.55Q254.5-35.55 257.96-33.56 261.43-31.57 263.37-27.86 265.31-24.15 265.31-19.41L265.31-19.41 265.31-16.14Q265.31-11.38 263.38-7.69 261.45-4 257.95-2 254.45 0 249.91 0L249.91 0ZM250.18-32.98L243.19-32.98 243.19-2.54 249.93-2.54Q255.55-2.54 258.94-6.26 262.33-9.99 262.33-16.33L262.33-16.33 262.33-19.46Q262.33-25.59 258.99-29.27 255.64-32.96 250.18-32.98L250.18-32.98ZM308.23-35.55L308.23-32.98 296.04-32.98 296.04 0 293.04 0 293.04-32.98 280.88-32.98 280.88-35.55 308.23-35.55ZM340.3-35.55L340.3 0 337.28 0 337.28-17.04 316.96-17.04 316.96 0 313.96 0 313.96-35.55 316.96-35.55 316.96-19.58 337.28-19.58 337.28-35.55 340.3-35.55ZM375.6-20.09L375.6-15.84Q375.6-10.94 373.91-7.23 372.21-3.52 369.06-1.51 365.91 0.49 361.79 0.49L361.79 0.49Q355.56 0.49 351.73-3.97 347.89-8.42 347.89-15.99L347.89-15.99 347.89-19.65Q347.89-24.51 349.62-28.26 351.34-32.01 354.49-34.02 357.64-36.04 361.74-36.04 365.84-36.04 368.98-34.06 372.11-32.08 373.82-28.47 375.53-24.85 375.6-20.09L375.6-20.09ZM372.6-15.94L372.6-19.7Q372.6-26.12 369.7-29.76 366.79-33.4 361.74-33.4L361.74-33.4Q356.78-33.4 353.84-29.75 350.9-26.1 350.9-19.56L350.9-19.56 350.9-15.84Q350.9-9.52 353.83-5.82 356.76-2.12 361.79-2.12L361.79-2.12Q366.89-2.12 369.75-5.77 372.6-9.42 372.6-15.94L372.6-15.94ZM404.63-35.55L407.66-35.55 407.66-11.28Q407.63-7.69 406.07-5.03 404.51-2.37 401.66-0.94 398.82 0.49 395.13 0.49L395.13 0.49Q389.52 0.49 386.14-2.58 382.76-5.64 382.63-11.06L382.63-11.06 382.63-35.55 385.61-35.55 385.61-11.5Q385.61-7.01 388.18-4.53 390.74-2.05 395.13-2.05 399.53-2.05 402.08-4.54 404.63-7.03 404.63-11.47L404.63-11.47 404.63-35.55ZM441.69-16.87L441.69-4.22Q440.13-2 436.79-0.76 433.46 0.49 429.34 0.49L429.34 0.49Q425.16 0.49 421.91-1.51 418.67-3.52 416.88-7.18 415.1-10.84 415.08-15.58L415.08-15.58 415.08-20.07Q415.08-27.47 418.81-31.75 422.55-36.04 428.85-36.04L428.85-36.04Q434.34-36.04 437.68-33.24 441.03-30.44 441.66-25.54L441.66-25.54 438.66-25.54Q438-29.44 435.48-31.46 432.95-33.47 428.87-33.47L428.87-33.47Q423.89-33.47 420.99-29.93 418.08-26.39 418.08-19.95L418.08-19.95 418.08-15.75Q418.08-11.69 419.46-8.58 420.84-5.47 423.41-3.76 425.99-2.05 429.34-2.05L429.34-2.05Q433.22-2.05 436-3.27L436-3.27Q437.81-4.08 438.69-5.15L438.69-5.15 438.69-14.33 429.14-14.33 429.14-16.87 441.69-16.87ZM476.55-35.55L476.55 0 473.52 0 473.52-17.04 453.21-17.04 453.21 0 450.21 0 450.21-35.55 453.21-35.55 453.21-19.58 473.52-19.58 473.52-35.55 476.55-35.55ZM508.99-35.55L508.99-32.98 496.81-32.98 496.81 0 493.81 0 493.81-32.98 481.65-32.98 481.65-35.55 508.99-35.55ZM534.45-8.74L534.45-8.74Q534.45-11.69 532.38-13.42 530.3-15.14 524.79-16.69 519.27-18.24 516.73-20.07L516.73-20.07Q513.12-22.66 513.12-26.86L513.12-26.86Q513.12-30.93 516.47-33.48 519.83-36.04 525.06-36.04L525.06-36.04Q528.6-36.04 531.39-34.67 534.19-33.3 535.72-30.86 537.26-28.42 537.26-25.42L537.26-25.42 534.23-25.42Q534.23-29.05 531.74-31.26 529.25-33.47 525.06-33.47L525.06-33.47Q520.98-33.47 518.56-31.65 516.14-29.83 516.14-26.9L516.14-26.9Q516.14-24.19 518.32-22.49 520.49-20.78 525.27-19.47 530.06-18.16 532.53-16.76 534.99-15.36 536.24-13.4 537.48-11.45 537.48-8.79L537.48-8.79Q537.48-4.59 534.12-2.05 530.77 0.49 525.27 0.49L525.27 0.49Q521.52 0.49 518.38-0.85 515.24-2.2 513.62-4.61 511.99-7.03 511.99-10.16L511.99-10.16 515-10.16Q515-6.4 517.8-4.22 520.61-2.05 525.27-2.05L525.27-2.05Q529.43-2.05 531.94-3.88 534.45-5.71 534.45-8.74Z" opacity="1" transform="matrix(1,0,0,1,0,0)" fill="#3d4950" class="undefined-text-0" data-fill-palette-color="primary" id="text-0"></path>
                                </svg>
                              </g>
                            </svg>
                          </g>
                        </svg>
                      </g>
                    </svg>
                  </g>
                  <g>
                    <svg viewBox="0 0 40.646037735849056 40.646037735849056" height="40.646037735849056" width="40.646037735849056">
                      <g>
                        <svg xmlns="http://www.w3.org/2000/svg" viewBox="2.5 2.5 95 95" style="enable-background:new 0 0 100 100" xml:space="preserve" x="0" y="0" height="40.646037735849056" width="40.646037735849056" class="icon-icon-0" data-fill-palette-color="accent" id="icon-0">
                          <path d="M63.8 97.5H36.2c-18.6 0-33.7-15.1-33.7-33.7V36.2c0-18.6 15.1-33.7 33.7-33.7h27.6c18.6 0 33.7 15.1 33.7 33.7v27.6c0 18.6-15.1 33.7-33.7 33.7zM36.2 6.6C19.9 6.6 6.6 19.9 6.6 36.2v27.6c0 16.3 13.3 29.6 29.6 29.6h27.6c16.3 0 29.6-13.3 29.6-29.6V36.2c0-16.3-13.3-29.6-29.6-29.6H36.2z" fill="#ff4993" data-fill-palette-color="accent"></path>
                          <circle cx="29.6" cy="37.9" r="7.2" fill="#ff4993" data-fill-palette-color="accent"></circle>
                          <circle cx="70.5" cy="37.9" r="7.2" fill="#ff4993" data-fill-palette-color="accent"></circle>
                          <path d="M70.9 53.2c-0.6 0.5-1.1 1-1.7 1.5-1.2 1-2.3 2-3.5 2.9-0.3 0.2-0.7 0.3-1 0.1l-0.1-0.1c-1.3-0.8-2.6-1.5-3.9-2.3l-2.4-1.5c-0.3-0.2-0.7-0.2-1 0l-0.6 0.4c-0.6 0.5-1.2 0.9-1.9 1.3-1.2 0.9-2.5 1.7-3.7 2.6l-0.4 0.3c-0.3 0.2-0.7 0.2-1 0l-0.7-0.2c-1.2-0.9-2.5-1.7-3.7-2.6-0.6-0.4-1.2-0.9-1.9-1.3l-0.6-0.4c-0.3-0.2-0.7-0.2-1 0l-2.4 1.5c-0.6 0.4-1.3 0.8-2 1.2-0.7 0.4-1.3 0.8-2 1.2l-0.1 0.1c-0.3 0.2-0.7 0.2-1-0.1-1.2-1-2.4-1.9-3.5-2.9-0.6-0.5-1.2-1-1.7-1.5-0.6-0.5-1.1-1-1.7-1.6 0.7 0.3 1.4 0.7 2.1 1 0.7 0.4 1.4 0.7 2 1.1 0.9 0.5 1.9 1 2.8 1.5 0.3 0.2 0.7 0.1 1-0.1 0.3-0.2 0.6-0.4 0.8-0.7 0.6-0.5 1.2-0.9 1.8-1.4l3.6-2.7 0.3-0.2c0.3-0.2 0.7-0.2 1 0l0.4 0.3 1.9 1.2c0.6 0.4 1.3 0.8 1.9 1.3 0.8 0.5 1.6 1 2.3 1.6 0.3 0.2 0.7 0.2 1 0 0.8-0.5 1.5-1 2.3-1.6 0.6-0.4 1.3-0.8 1.9-1.2l1.9-1.2 0.4-0.3c0.3-0.2 0.7-0.2 1 0l0.3 0.2 3.6 2.7c0.9 0.7 1.8 1.4 2.6 2.1 0.3 0.2 0.7 0.3 1 0.1 0.9-0.5 1.9-1 2.8-1.6 0.7-0.4 1.4-0.7 2-1.1 0.7-0.4 1.4-0.7 2.1-1-0.2 0.4-0.8 0.9-1.3 1.4z" fill="#ff4993" data-fill-palette-color="accent"></path>
                        </svg>
                      </g>
                    </svg>
                  </g>
                </svg>
              </g>
            </svg>
          </g>
        </svg>
        <rect width="395.52" height="35.61405917889037" fill="none" stroke="none" visibility="hidden"></rect>
      </g>
    </svg>
  </g>
</svg>